<svg xmlns="http://www.w3.org/2000/svg" viewBox="0 0 32 32" fill="none">
  <defs>
    <linearGradient id="grad32" x1="0%" y1="0%" x2="100%" y2="100%">
      <stop offset="0%" style="stop-color:#3b82f6;stop-opacity:1" />
      <stop offset="100%" style="stop-color:#2563eb;stop-opacity:1" />
    </linearGradient>
  </defs>
  <path d="M28 21.34V10.66a2 2 0 0 0-1-1.74l-10-6a2 2 0 0 0-2 0l-10 6a2 2 0 0 0-1 1.74v10.68a2 2 0 0 0 1 1.74l10 6a2 2 0 0 0 2 0l10-6a2 2 0 0 0 1-1.74z" fill="url(#grad32)"/>
  <path d="M4.36 9.28L16 16l11.64-6.72M16 29.34V16" stroke="white" stroke-width="2" stroke-linecap="round" stroke-linejoin="round"/>
  <circle cx="16" cy="16" r="2" fill="white"/>
</svg>
